/* XPM */
static char*alarmd[]={
"22 22 11 1",
". c #808080",
"e c #b3b3b3",
"i c #c3c3c3",
"f c #808000",
"b c #000000",
"g c #ffff00",
"h c #800000",
"c c #0000ff",
"# c None",
"a c #808080",
"d c #ffffff",
".#.#.#.#.#.#.#.#.#.#.#",
"#abababababababababa#a",
"abacacacacacacacaca#a#",
"#acacacacacacacacababa",
"abadaeadadaeadadadaba#",
"#adadadaeadadaeadababa",
"abaeaeaeaeaeaeaeaeaba#",
"#adadadaeadadaeadababa",
"abadaeadadaeafadadaba#",
"#aeaeaeaeaeafabaeababa",
"abadaeadadafafabadaba#",
"#adadadaeadagafadababa",
"abaeaeaeaeagahafaeaba#",
"#adadadaeafagahabababa",
"abadaeadadagagafadaba#",
"#aeaeaeaeagahahafbbaba",
"abadaeadadaiabadadaba#",
"#adadadaeadafabadababa",
"ababababababababababa#",
"#a#abababababababababa",
"a#abababababababababa#",
"#a#a#a#a#a#a#a#a#a#a#a"};
