/* XPM */
static char * korganizer_xpm[] = {
"34 34 218 2",
"  	c None",
". 	c #020204",
"+ 	c #4ABE38",
"@ 	c #4ACA3C",
"# 	c #46C634",
"$ 	c #46C234",
"% 	c #42BE2C",
"& 	c #3EBA2C",
"* 	c #3AB62C",
"= 	c #2E8E24",
"- 	c #326E34",
"; 	c #2E5A2C",
"> 	c #427E3C",
", 	c #2E9E1C",
"' 	c #2E9A14",
") 	c #2A9614",
"! 	c #2A9214",
"~ 	c #2E9214",
"{ 	c #2E9614",
"] 	c #061A04",
"^ 	c #A2D29C",
"/ 	c #FEFEFC",
"( 	c #FEFAF4",
"_ 	c #F6FEFC",
": 	c #7E7E7C",
"< 	c #BEB6BC",
"[ 	c #E2E2E4",
"} 	c #2A7E14",
"| 	c #2A860C",
"1 	c #0A2E04",
"2 	c #F6F6F5",
"3 	c #B2B2B2",
"4 	c #868684",
"5 	c #FEF2F1",
"6 	c #FEEEEC",
"7 	c #3E6234",
"8 	c #022604",
"9 	c #52CA44",
"0 	c #5E5E5C",
"a 	c #FAF6FC",
"b 	c #FE8205",
"c 	c #F69A64",
"d 	c #F28E44",
"e 	c #FEE6D4",
"f 	c #3A5A3C",
"g 	c #4EC63C",
"h 	c #FAAEAC",
"i 	c #FEDADC",
"j 	c #FEBEBC",
"k 	c #F2F2F4",
"l 	c #9E9A9C",
"m 	c #EEEEF8",
"n 	c #565654",
"o 	c #FAFAFC",
"p 	c #D6D6D9",
"q 	c #FEBA84",
"r 	c #FEDEAC",
"s 	c #F26E10",
"t 	c #F2863C",
"u 	c #F2D6C4",
"v 	c #4EC23C",
"w 	c #564644",
"x 	c #826E54",
"y 	c #CECECC",
"z 	c #E6EAEC",
"A 	c #B6AA94",
"B 	c #523A2C",
"C 	c #8A8284",
"D 	c #FE7A0C",
"E 	c #E67204",
"F 	c #722E04",
"G 	c #AE9E9C",
"H 	c #B6BABC",
"I 	c #6A6A6C",
"J 	c #9E968C",
"K 	c #AEAEAC",
"L 	c #CACACC",
"M 	c #C6BAAC",
"N 	c #6E6664",
"O 	c #FE7E04",
"P 	c #E27A04",
"Q 	c #863E04",
"R 	c #5A2E24",
"S 	c #8A8E8C",
"T 	c #9A9A9C",
"U 	c #4E4E4C",
"V 	c #DEDEDE",
"W 	c #FE8A14",
"X 	c #E67E04",
"Y 	c #562A1C",
"Z 	c #A2A2A4",
"` 	c #BEBEBC",
" .	c #BABABC",
"..	c #666664",
"+.	c #823A04",
"@.	c #5E3224",
"#.	c #A2A6AA",
"$.	c #4ABA34",
"%.	c #B2B6B4",
"&.	c #626264",
"*.	c #FE8611",
"=.	c #8E4204",
"-.	c #9E9EA0",
";.	c #EAEAEC",
">.	c #AEAEEE",
",.	c #E6E6FC",
"'.	c #CECEFC",
").	c #5E6674",
"!.	c #7E3604",
"~.	c #A6AEB4",
"{.	c #C6C6CC",
"].	c #9A9AD4",
"^.	c #B6B6FC",
"/.	c #46B634",
"(.	c #DADAF8",
"_.	c #E2E2FC",
":.	c #A6B2BC",
"<.	c #C2C2C4",
"[.	c #DADADA",
"}.	c #CECEE4",
"|.	c #52261C",
"1.	c #A6A6AC",
"2.	c #EEEEEC",
"3.	c #42B22C",
"4.	c #C6CAC4",
"5.	c #868A8C",
"6.	c #BABEC0",
"7.	c #B6B6B9",
"8.	c #42AE2C",
"9.	c #FA7604",
"0.	c #EA7A04",
"a.	c #7A3604",
"b.	c #562E24",
"c.	c #DEDEFC",
"d.	c #BABAF8",
"e.	c #FABE84",
"f.	c #F67614",
"g.	c #E27204",
"h.	c #924604",
"i.	c #9A9EA4",
"j.	c #BEC2C4",
"k.	c #C2C2FC",
"l.	c #FAE2D0",
"m.	c #F6DECC",
"n.	c #E66E04",
"o.	c #8A4204",
"p.	c #4E220C",
"q.	c #CACAFC",
"r.	c #3EAA2C",
"s.	c #FEF6F4",
"t.	c #F6CEB4",
"u.	c #FEDEC4",
"v.	c #EA8E54",
"w.	c #D2763C",
"x.	c #562614",
"y.	c #3E3E3C",
"z.	c #F2CEBC",
"A.	c #E6AE8C",
"B.	c #BA765C",
"C.	c #86523C",
"D.	c #6E6E74",
"E.	c #3E4A3C",
"F.	c #D2D2D4",
"G.	c #3EA62C",
"H.	c #F6EEE4",
"I.	c #EECABC",
"J.	c #EAB694",
"K.	c #B26A4C",
"L.	c #76422C",
"M.	c #76463C",
"N.	c #A6AAB4",
"O.	c #E6E6E4",
"P.	c #725E4C",
"Q.	c #824A3C",
"R.	c #BAC2C4",
"S.	c #DADEDC",
"T.	c #9A9694",
"U.	c #5A5A5C",
"V.	c #3EA22C",
"W.	c #AAAAF4",
"X.	c #46423C",
"Y.	c #7E7A7C",
"Z.	c #767674",
"`.	c #FAC2C4",
" +	c #FEEAE8",
".+	c #FAB6B4",
"++	c #3AA22C",
"@+	c #FEE6E4",
"#+	c #42363C",
"$+	c #66563C",
"%+	c #CEC6BC",
"&+	c #3E2A1C",
"*+	c #FECECC",
"=+	c #FECACC",
"-+	c #3A9E2C",
";+	c #8A8A90",
">+	c #CAC6C4",
",+	c #E2DEDC",
"'+	c #369E2C",
")+	c #FEDEDC",
"!+	c #525254",
"~+	c #466244",
"{+	c #828284",
"]+	c #124614",
"^+	c #36A214",
"/+	c #167E0C",
"(+	c #123E14",
"_+	c #0E360C",
":+	c #365234",
"<+	c #464A4C",
"[+	c #224224",
"}+	c #124214",
"|+	c #164A14",
"1+	c #1E561C",
"2+	c #061204",
"3+	c #020E04",
"4+	c #060E04",
"5+	c #020604",
"                                                                    ",
"    . . . . . . . . . . . . . . . . . . . . . . . . . . . . .       ",
"  . + @ # $ % % & & * * * * = - ; > , , , , ' ' ) ! ! ! ! ~ { ] .   ",
"  . # ^ / / / / / / / / ( _ : < [ : / / / / / / / / / ( ( } | 1 .   ",
"  . @ / / / / / / / / / / / 2 3 4 / / / / / / / / 5 6 / / / 7 8 .   ",
"  . 9 / / / / / / / / / / / _ 3 0 a / / / / / / b c d e / / f 8 .   ",
"  . g / h i j / / / / / k l m 3 n o l p / / / b q r s t u / f 8 .   ",
"  . v / h 5 h / / / / / l w $+%+;.J B C 2 ( b q r D E F G / f 8 .   ",
"  . v / / / / / / / / / H I >+3 L ,+N H o O q r O P Q R S / f 8 .   ",
"  . + / / / / / / / / / o [ / i.!+V o [ b q r W X Q Y Z H / f 8 .   ",
"  . + / ` ` ` ` ` ` ` ` / / /  ...o / b q r O X +.@.#.Z K / f 8 .   ",
"  . $./ / / / / / / / / / / / %.&.o O q r *.X =.Y -.H p ;./ f 8 .   ",
"  . $./ >.,.'./ / / / / / / ( 3 ).b q r b X !.Y ~.{.].;.^./ f 8 .   ",
"  . /./ (.o _.o / / / / / / / :.b q r *.P =.R T <.[.}./ (./ f 8 .   ",
"  . /./ / / / / / / / / / / _ b q r *.P Q |.1.` [.2./ / / / f 8 .   ",
"  . 3./ / / / / / / / / / / O q r O X Q @.1.4.V ;./ / / / / f 8 .   ",
"  . 3./ ` ` ` ` ` ` ` ` / b q r b X =.|.5.S -.3 ` ` ` 6.7./ f 8 .   ",
"  . 8./ / / / / / / / / O q r 9.0.a.b.K {.[ k / / / / / / / f 8 .   ",
"  . 8./ >.c.d.o / / / b q e.f.g.h.b.i.j.p ;./ / / / (.'.>./ f 8 .   ",
"  . 8./ d.,.k.o / / l.m.e.9.n.o.p.T <.[.;./ / / / / k.q.d./ f 8 .   ",
"  . r./ / / / / / s.t.u.v.w.+.x.y.7.p ;./ / / / / / / / / / f 8 .   ",
"  . r./ / / / / / z.m.A.B.C.|.D.E.F.2./ / / / / / / / / / / f 8 .   ",
"  . G./ ` ` ` [ H.I.J.K.L.M.N.4 U O./ / ` ` ` ` ` ` ` ` ` / f 8 .   ",
"  . G./ / / / / M P.Q.M.C R.S.T.U.o / / / / / / / / / / / / f 8 .   ",
"  . V./ ^.,.W.2 . X.1. .6.Y. .3 Z./ l p o / / / / / `. +.+/ f 8 .   ",
"  . ++/ >.;.(.5 @+V L S.l #+$+%+;.J &+C k / / / / / *+=+h / f 8 .   ",
"  . -+/ / / / j 6 o a o H ;+>+3 L ,+T.H / / / / / / / / / / f 8 .   ",
"  . '+/ )+j h s./ / / / / [ / i.!+V o [ / / / / / / / / / / f 8 .   ",
"  . -+/ / / / / / / / / / / / ` I / / / / / / / / / / / / / ~+8 .   ",
"  . V.^ / / / / / / / / / / : D.{+T / / / / / / / / / / / } ]+8 .   ",
"  . ^+/+]+(+(+(+(+(+(+(+(+_+:+<+n X.[+(+(+(+(+(+(+(+(+(+}+|+1+] .   ",
"    . ] 2+3+4+4+4+3+4+4+4+4+4+. . 5+3+3+4+4+4+4+4+4+4+3+3+3+4+. .   ",
"      . . . . . . . . . . . . . . . . . . . . . . . . . . . . . .   ",
"                                                                    "};
