/* XPM */
static char * todolist_xpm[] = {
"22 22 6 1",
" 	c None",
".	c #000000",
"+	c #0000FF",
"@	c #FF0000",
"#	c #A09090",
"$	c #FFFFFF",
"                      ",
" ..................   ",
" .++++++++++++++++.@@ ",
" .+++++++++++++++@@@# ",
" .$$$$$$$$$$$$$$@@@.. ",
" .$..$.........@@@... ",
" .$$@@$$$$$$$$@@@#... ",
" .$@@@@$$$$$$@@@##... ",
" .$@@@@.....@@@##$... ",
" .$@@@@#$$@@@@##$$... ",
" .$@@@@#@@@@@##$$$... ",
" .$@@@@@@@@@....$$... ",
" .$@@@@@@@@##$$$$$... ",
" .$@@@@@@@##$$$$$$... ",
" .$@@@@@@...$$$$$$... ",
" .$$@@@@##$$$$$$$$... ",
" .$$$####$$$$$$$$$... ",
" .$$$$$$$$$$$$$$$$... ",
" .................... ",
"    ................. ",
"    ................. ",
"                      "};
